<svg width="271" height="58" viewBox="0 0 271 58" fill="none" xmlns="http://www.w3.org/2000/svg">
<path d="M44.0341 11.0909H53.1364L62.75 34.5455H63.1591L72.7727 11.0909H81.875V46H74.7159V23.2784H74.4261L65.392 45.8295H60.517L51.483 23.1932H51.1932V46H44.0341V11.0909ZM99.7514 46.5114C97.0582 46.5114 94.7401 45.9659 92.7969 44.875C90.8651 43.7727 89.3764 42.2159 88.331 40.2045C87.2855 38.1818 86.7628 35.7898 86.7628 33.0284C86.7628 30.3352 87.2855 27.9716 88.331 25.9375C89.3764 23.9034 90.848 22.3182 92.7457 21.1818C94.6548 20.0455 96.8935 19.4773 99.4616 19.4773C101.189 19.4773 102.797 19.7557 104.286 20.3125C105.786 20.858 107.092 21.6818 108.206 22.7841C109.331 23.8864 110.206 25.2727 110.831 26.9432C111.456 28.6023 111.768 30.5455 111.768 32.7727V34.767H89.6605V30.267H104.933C104.933 29.2216 104.706 28.2955 104.251 27.4886C103.797 26.6818 103.166 26.0511 102.359 25.5966C101.564 25.1307 100.638 24.8977 99.581 24.8977C98.4787 24.8977 97.5014 25.1534 96.6491 25.6648C95.8082 26.1648 95.1491 26.8409 94.6719 27.6932C94.1946 28.5341 93.9503 29.4716 93.9389 30.5057V34.7841C93.9389 36.0795 94.1776 37.1989 94.6548 38.142C95.1435 39.0852 95.831 39.8125 96.7173 40.3239C97.6037 40.8352 98.6548 41.0909 99.8707 41.0909C100.678 41.0909 101.416 40.9773 102.087 40.75C102.757 40.5227 103.331 40.1818 103.808 39.7273C104.286 39.2727 104.649 38.7159 104.899 38.0568L111.615 38.5C111.274 40.1136 110.575 41.5227 109.518 42.7273C108.473 43.9205 107.121 44.8523 105.462 45.5227C103.814 46.1818 101.911 46.5114 99.7514 46.5114ZM126.155 46.4261C124.166 46.4261 122.365 45.9148 120.751 44.892C119.149 43.858 117.876 42.3409 116.933 40.3409C116.001 38.3295 115.536 35.8636 115.536 32.9432C115.536 29.9432 116.018 27.4489 116.984 25.4602C117.95 23.4602 119.234 21.9659 120.837 20.9773C122.45 19.9773 124.217 19.4773 126.138 19.4773C127.604 19.4773 128.825 19.7273 129.803 20.2273C130.791 20.7159 131.587 21.3295 132.189 22.0682C132.803 22.7955 133.268 23.5114 133.587 24.2159H133.808V11.0909H141.053V46H133.893V41.8068H133.587C133.246 42.5341 132.763 43.2557 132.138 43.9716C131.524 44.6761 130.723 45.2614 129.734 45.7273C128.757 46.1932 127.564 46.4261 126.155 46.4261ZM128.456 40.6477C129.626 40.6477 130.615 40.3295 131.422 39.6932C132.24 39.0455 132.865 38.142 133.297 36.983C133.74 35.8239 133.962 34.4659 133.962 32.9091C133.962 31.3523 133.746 30 133.314 28.8523C132.882 27.7045 132.257 26.8182 131.439 26.1932C130.621 25.5682 129.626 25.2557 128.456 25.2557C127.263 25.2557 126.257 25.5795 125.439 26.2273C124.621 26.875 124.001 27.7727 123.581 28.9205C123.161 30.0682 122.95 31.3977 122.95 32.9091C122.95 34.4318 123.161 35.7784 123.581 36.9489C124.013 38.108 124.632 39.017 125.439 39.6761C126.257 40.3239 127.263 40.6477 128.456 40.6477ZM147.023 46V19.8182H154.284V46H147.023ZM150.67 16.4432C149.591 16.4432 148.665 16.0852 147.892 15.3693C147.131 14.642 146.75 13.7727 146.75 12.7614C146.75 11.7614 147.131 10.9034 147.892 10.1875C148.665 9.46023 149.591 9.09659 150.67 9.09659C151.75 9.09659 152.67 9.46023 153.432 10.1875C154.205 10.9034 154.591 11.7614 154.591 12.7614C154.591 13.7727 154.205 14.642 153.432 15.3693C152.67 16.0852 151.75 16.4432 150.67 16.4432Z" fill="white"/>
<path d="M181.885 27.2841L175.237 27.6932C175.124 27.125 174.879 26.6136 174.504 26.1591C174.129 25.6932 173.635 25.3239 173.021 25.0511C172.419 24.767 171.697 24.625 170.857 24.625C169.732 24.625 168.783 24.8636 168.01 25.3409C167.237 25.8068 166.851 26.4318 166.851 27.2159C166.851 27.8409 167.101 28.3693 167.601 28.8011C168.101 29.233 168.959 29.5795 170.175 29.8409L174.913 30.7955C177.459 31.3182 179.357 32.1591 180.607 33.3182C181.857 34.4773 182.482 36 182.482 37.8864C182.482 39.6023 181.976 41.108 180.964 42.4034C179.964 43.6989 178.589 44.7102 176.839 45.4375C175.101 46.1534 173.095 46.5114 170.822 46.5114C167.357 46.5114 164.595 45.7898 162.538 44.3466C160.493 42.892 159.294 40.9148 158.942 38.4148L166.084 38.0398C166.3 39.0966 166.822 39.9034 167.652 40.4602C168.482 41.0057 169.544 41.2784 170.839 41.2784C172.112 41.2784 173.135 41.0341 173.908 40.5455C174.692 40.0455 175.089 39.4034 175.101 38.6193C175.089 37.9602 174.811 37.4205 174.266 37C173.72 36.5682 172.879 36.2386 171.743 36.0114L167.209 35.108C164.652 34.5966 162.749 33.7102 161.499 32.4489C160.26 31.1875 159.641 29.5795 159.641 27.625C159.641 25.9432 160.095 24.4943 161.004 23.2784C161.925 22.0625 163.214 21.125 164.874 20.4659C166.544 19.8068 168.499 19.4773 170.737 19.4773C174.044 19.4773 176.646 20.1761 178.544 21.5739C180.453 22.9716 181.567 24.875 181.885 27.2841ZM191.537 55.8182C190.616 55.8182 189.753 55.7443 188.946 55.5966C188.151 55.4602 187.491 55.2841 186.969 55.0682L188.605 49.6477C189.457 49.9091 190.224 50.0511 190.906 50.0739C191.599 50.0966 192.196 49.9375 192.696 49.5966C193.207 49.2557 193.622 48.6761 193.94 47.858L194.366 46.75L184.974 19.8182H192.611L198.031 39.0455H198.304L203.776 19.8182H211.463L201.287 48.8295C200.798 50.2386 200.134 51.4659 199.293 52.5114C198.463 53.5682 197.412 54.3807 196.139 54.9489C194.866 55.5284 193.332 55.8182 191.537 55.8182ZM222.44 30.8636V46H215.179V19.8182H222.099V24.4375H222.406C222.986 22.9148 223.957 21.7102 225.321 20.8239C226.685 19.9261 228.338 19.4773 230.281 19.4773C232.099 19.4773 233.685 19.875 235.037 20.6705C236.389 21.4659 237.44 22.6023 238.19 24.0795C238.94 25.5455 239.315 27.2955 239.315 29.3295V46H232.054V30.625C232.065 29.0227 231.656 27.7727 230.827 26.875C229.997 25.9659 228.855 25.5114 227.401 25.5114C226.423 25.5114 225.56 25.7216 224.81 26.142C224.071 26.5625 223.491 27.1761 223.071 27.983C222.662 28.7784 222.452 29.7386 222.44 30.8636ZM256.868 46.5114C254.186 46.5114 251.879 45.9432 249.947 44.8068C248.027 43.6591 246.55 42.0682 245.516 40.0341C244.493 38 243.982 35.6591 243.982 33.0114C243.982 30.3295 244.499 27.9773 245.533 25.9545C246.578 23.9205 248.061 22.3352 249.982 21.1989C251.902 20.0511 254.186 19.4773 256.834 19.4773C259.118 19.4773 261.118 19.892 262.834 20.7216C264.55 21.5511 265.908 22.7159 266.908 24.2159C267.908 25.7159 268.459 27.4773 268.561 29.5H261.709C261.516 28.1932 261.004 27.142 260.175 26.3466C259.357 25.5398 258.283 25.1364 256.953 25.1364C255.828 25.1364 254.845 25.4432 254.004 26.0568C253.175 26.6591 252.527 27.5398 252.061 28.6989C251.595 29.858 251.362 31.2614 251.362 32.9091C251.362 34.5795 251.589 36 252.044 37.1705C252.51 38.3409 253.163 39.233 254.004 39.8466C254.845 40.4602 255.828 40.767 256.953 40.767C257.783 40.767 258.527 40.5966 259.186 40.2557C259.857 39.9148 260.408 39.4205 260.839 38.7727C261.283 38.1136 261.572 37.3239 261.709 36.4034H268.561C268.447 38.4034 267.902 40.1648 266.925 41.6875C265.959 43.1989 264.624 44.3807 262.919 45.233C261.214 46.0852 259.197 46.5114 256.868 46.5114Z" fill="#49D59A"/>
<path d="M31.5714 25.3571H20.6429V14.4286C20.6429 13.0875 19.5553 12 18.2143 12H15.7857C14.4447 12 13.3571 13.0875 13.3571 14.4286V25.3571H2.42857C1.08754 25.3571 0 26.4447 0 27.7857V30.2143C0 31.5553 1.08754 32.6429 2.42857 32.6429H13.3571V43.5714C13.3571 44.9125 14.4447 46 15.7857 46H18.2143C19.5553 46 20.6429 44.9125 20.6429 43.5714V32.6429H31.5714C32.9125 32.6429 34 31.5553 34 30.2143V27.7857C34 26.4447 32.9125 25.3571 31.5714 25.3571Z" fill="#49D49A"/>
</svg>
